Coordinates
version=1
nRows=12
nColumns=33
inDegrees=yes

Units are S.I. units (second, meters, Newtons, ...)
Angles are in degrees.

endheader
time	ground_thorax_rot_x	ground_thorax_rot_y	ground_thorax_rot_z	ground_thorax_tx	ground_thorax_ty	ground_thorax_tz	clav_prot_r	clav_elev_r	scapula_abduction_r	scapula_elevation_r	scapula_upward_rot_r	scapula_winging_r	shoulder_elv_r	plane_of_elev_r	axial_rot_r	elbow_flexion_r	pro_sup_r	wrist_flex_r	wrist_dev_r	clav_prot_l	clav_elev_l	scapula_abduction_l	scapula_elevation_l	scapula_upward_rot_l	scapula_winging_l	shoulder_elv_l	plane_of_elev_l	axial_rot_l	elbow_flexion_l	pro_sup_l	wrist_flex_l	wrist_dev_l
      5.22000000	     38.87847612	      9.39411650	     10.40371385	   -197.39109358	    838.35127436	      4.30392299	     14.70114250	     37.45656240	     38.25297903	     45.00000000	    -45.00000000	   1714.04938338	  -1184.45856834	    146.53372612	    179.99999979	   1810.64962964	     57.03924849	     25.92640688	      9.73390022	     11.30772670	    -45.00000000	    -40.54506088	     45.00000000	    -38.62779646	  -2781.29489938	  -1533.01301073	    139.11857472	    168.85864325	   1089.11226469	     28.96239414	      6.27065636	    -23.66720331
      5.23000000	     38.91104810	      9.47298137	     10.53902640	   -194.72462284	    837.91818812	      4.22263977	     14.93895658	     37.59976703	     38.43087575	     45.00000000	    -45.00000000	   1714.05410869	  -1184.42831819	    146.48190838	    179.99999979	   1810.76690599	     56.55213248	     25.85741732	      9.81942979	     11.21993478	    -45.00000000	    -40.72327676	     45.00000000	    -38.09121849	  -2781.41601017	  -1533.08705252	    139.25094014	    168.71678952	   1089.21751780	     28.50207820	      6.35678671	    -23.63308005
      5.24000000	     38.90826407	      9.70821191	     10.90110735	   -191.90128499	    837.43266429	      4.16142341	     14.70648662	     37.47312580	     38.50278337	     45.00000000	    -45.00000000	   1714.10802387	  -1184.41305048	    146.41126069	    179.99999979	   1810.77658676	     56.04524861	     25.73348449	      9.92777134	     11.31286538	    -45.00000000	    -40.73973023	     45.00000000	    -37.99115203	  -2781.44628293	  -1533.08701159	    139.14979485	    168.48654872	   1089.18465302	     27.95632689	      6.53719745	    -23.58248808
      5.25000000	     38.89862958	      9.67575360	     10.93757797	   -188.91334153	    836.89788282	      4.12015202	     15.28562146	     37.77352070	     38.67855459	     45.00000000	    -45.00000000	   1714.24795172	  -1184.42183925	    146.41547246	    179.99999979	   1810.99512114	     55.26473917	     25.65294202	     10.05918179	     11.07985416	    -45.00000000	    -40.95139924	     45.00000000	    -37.02442955	  -2781.64180014	  -1533.17088147	    139.48305930	    168.53846167	   1089.28883760	     27.04410875	      6.76580379	    -23.55117928
      5.26000000	     38.89019623	      9.86004646	     11.24186098	   -185.77355677	    836.31856440	      4.09810421	     15.34038137	     37.78692281	     38.87243484	     45.00000000	    -45.00000000	   1714.30361161	  -1184.39338754	    146.38264462	    179.99999979	   1811.05587045	     54.43770373	     25.52467882	     10.24399465	     11.05977522	    -45.00000000	    -41.08008025	     45.00000000	    -36.61110415	  -2781.74720707	  -1533.20804972	    139.50348760	    168.42256727	   1089.31740644	     26.02034662	      7.05015503	    -23.47998219
      5.27000000	     38.90300595	     10.26867742	     11.71774908	   -182.46948107	    835.68887290	      4.09305294	     15.00450193	     37.64729336	     38.87682274	     45.00000000	    -45.00000000	   1714.22270901	  -1184.44647883	    146.15765007	    179.99999979	   1811.00702800	     53.69875555	     25.40119464	     10.48214989	     11.25147232	    -45.00000000	    -41.07083334	     45.00000000	    -36.75383748	  -2781.78954273	  -1533.32983870	    139.29483742	    168.28364286	   1089.27820925	     25.11569602	      7.30685287	    -23.36125964
      5.28000000	     38.86046967	     10.36483818	     11.95860924	   -179.00530778	    834.99902490	      4.10202994	     15.41135568	     37.85330059	     39.11831769	     45.00000000	    -45.00000000	   1714.35870063	  -1184.47500125	    146.20507600	    179.99999979	   1811.11306104	     52.69376243	     25.27148588	     10.72105647	     11.04300228	    -45.00000000	    -41.28505158	     45.00000000	    -36.01501809	  -2781.96642876	  -1533.39700021	    139.49691216	    168.44926591	   1089.34040383	     23.95870404	      7.68257683	    -23.29151891
      5.29000000	     38.82850609	     10.54917525	     12.32323980	   -175.39016870	    834.23658544	      4.12183061	     15.51524851	     37.85408181	     39.32672749	     45.00000000	    -45.00000000	   1714.51306084	  -1184.51999154	    146.20879001	    179.99999979	   1811.09238939	     51.55527928	     25.07223160	     11.00597648	     10.95787081	    -45.00000000	    -41.34976204	     45.00000000	    -35.44886292	  -2782.05751502	  -1533.51019861	    139.52823183	    168.38318425	   1089.30434903	     22.76065071	      8.15567358	    -23.18579702
      5.30000000	     38.79241430	     10.87191877	     12.77072554	   -171.63300744	    833.38320990	      4.14997389	     15.57969563	     37.88314659	     39.45327886	     45.00000000	    -45.00000000	   1714.58649067	  -1184.59452377	    146.15743493	    179.99999979	   1811.08874675	     50.36528403	     24.89240392	     11.34387857	     10.91949363	    -45.00000000	    -41.44437927	     45.00000000	    -35.11185467	  -2782.21352308	  -1533.64910107	    139.56258362	    168.37327684	   1089.31016523	     21.59985361	      8.58311553	    -23.04345880
      5.31000000	     38.73900176	     11.20851762	     13.24247194	   -167.73965470	    832.41563731	      4.18564489	     15.64204180	     37.90886308	     39.58651263	     45.00000000	    -45.00000000	   1714.66786018	  -1184.69307609	    146.10776078	    179.99999979	   1811.03784578	     49.13520162	     24.69160776	     11.71335648	     10.87527123	    -45.00000000	    -41.51670660	     45.00000000	    -34.75058394	  -2782.35819525	  -1533.80910951	    139.56572439	    168.37935102	   1089.29896467	     20.52388739	      9.04204224	    -22.88527808
      5.32000000	     38.68394627	     11.58647137	     13.81254367	   -163.73053326	    831.31257013	      4.22919157	     15.68470471	     37.95096499	     39.69516500	     45.00000000	    -45.00000000	   1714.75263409	  -1184.81412685	    146.01267313	    179.99999979	   1810.93204238	     47.95003844	     24.50311515	     12.12915852	     10.87429142	    -45.00000000	    -41.61297873	     45.00000000	    -34.55681774	  -2782.51731108	  -1533.98155018	    139.53682907	    168.46314078	   1089.26560100	     19.59847823	      9.46405266	    -22.70331905
      5.33000000	     38.64946622	     11.98343542	     14.34564617	   -159.61488427	    830.05136856	      4.28210599	     15.78985847	     38.00094286	     39.83505912	     45.00000000	    -45.00000000	   1714.84496847	  -1184.92561019	    145.95715953	    179.99999979	   1810.84217892	     46.76295637	     24.28100544	     12.52869059	     10.83749264	    -45.00000000	    -41.65967254	     45.00000000	    -34.25585855	  -2782.72184181	  -1534.20175894	    139.48964836	    168.59535809	   1089.24981083	     18.80471417	      9.91060932	    -22.52537703
